HIERARCHY
ROOT pelvis
{
  OFFSET -7.63965 82.2032 82.7024
  CHANNELS 6 Xposition Yposition Zposition Zrotation Xrotation Yrotation
  JOINT lfemur
  {
    OFFSET 0 11.1017 0
    CHANNELS 3 Zrotation Xrotation Yrotation
    JOINT ltibia
    {
      OFFSET 0 0 -38.8528
      CHANNELS 3 Zrotation Xrotation Yrotation
      JOINT lfoot
      {
        OFFSET 0 0 -37.0938
        CHANNELS 3 Zrotation Xrotation Yrotation
        JOINT ltoes
        {
          OFFSET 17.1985 0 0
          CHANNELS 3 Zrotation Xrotation Yrotation
          End Site
          {
            OFFSET 0 0 0
          }
        }
      }
    }
  }
  JOINT rfemur
  {
    OFFSET 0 -11.1017 0
    CHANNELS 3 Zrotation Xrotation Yrotation
    JOINT rtibia
    {
      OFFSET 0 0 -38.8528
      CHANNELS 3 Zrotation Xrotation Yrotation
      JOINT rfoot
      {
        OFFSET 0 0 -37.0938
        CHANNELS 3 Zrotation Xrotation Yrotation
        JOINT rtoes
        {
          OFFSET 17.1985 0 0
          CHANNELS 3 Zrotation Xrotation Yrotation
          End Site
          {
            OFFSET 0 0 0
          }
        }
      }
    }
  }
  JOINT thorax
  {
    OFFSET -7.75975 2.16923 18.8303
    CHANNELS 3 Zrotation Xrotation Yrotation
    JOINT head
    {
      OFFSET 0.361093 5.80812 34.0356
      CHANNELS 3 Zrotation Xrotation Yrotation
      End Site
      {
        OFFSET 0 0 0
      }
    }
    JOINT lclavicle
    {
      OFFSET 0 0 22.6563
      CHANNELS 3 Zrotation Xrotation Yrotation
      JOINT lhumerus
      {
        OFFSET 0 15.4616 3.14228
        CHANNELS 3 Zrotation Xrotation Yrotation
        JOINT lradius
        {
          OFFSET 0 0 -25.1681
          CHANNELS 3 Zrotation Xrotation Yrotation
          JOINT lhand
          {
            OFFSET 0 0 -15.0159
            CHANNELS 3 Zrotation Xrotation Yrotation
            End Site
            {
              OFFSET 0 0 0
            }
          }
        }
      }
    }
    JOINT rclavicle
    {
      OFFSET 0 0 22.6563
      CHANNELS 3 Zrotation Xrotation Yrotation
      JOINT rhumerus
      {
        OFFSET 0 -15.4616 3.14228
        CHANNELS 3 Zrotation Xrotation Yrotation
        JOINT rradius
        {
          OFFSET 0 0 -25.1681
          CHANNELS 3 Zrotation Xrotation Yrotation
          JOINT rhand
          {
            OFFSET 0 0 -15.0159
            CHANNELS 3 Zrotation Xrotation Yrotation
            End Site
            {
              OFFSET 0 0 0
            }
          }
        }
      }
    }
  }
}
MOTION
Frames:	8
Frame Time:	0.0333333
-7.63618 82.2064 82.7429 87.5939 -42.8792 95.3763 2.30974 -0.280014 -2.3193 6.31518e-015 -1.39149e-015 -2.05942 11.5685 2.0064 9.70584 1.18136e-015 3.18055e-015 -20.3766 2.04157 -2.72354 4.83631 -1.27976e-014 -7.95139e-016 -3.60834 -2.3026 -0.112549 2.79684 -8.14187e-015 -3.97569e-015 -19.3815 -0.297209 -3.35063 6.87667 -4.30333 18.4175 -22.7693 -3.432 2.10537 0.126233 19.1983 1.11061 -8.41822 -51.3514 14.4767 -11.3049 -9.93488e-009 4.62231 -10.5263 -0.0682864 3.45132 0.00411088 -28.9313 -3.53911 -14.5148 47.9226 -9.10801 -8.13352 -3.65089e-010 -6.37492 -1.70215 
-7.6178 82.2132 82.8382 87.6236 -43.0633 95.3651 2.43631 -0.214326 -2.32879 -3.18252e-015 0 -2.01214 11.624 2.02072 9.72675 -4.28204e-015 -2.38542e-015 -20.4221 2.13179 -2.6725 4.77737 4.97287e-017 7.95139e-016 -3.57867 -2.19252 -0.106978 2.79202 -3.13211e-015 1.03368e-014 -19.2248 -0.240035 -3.37463 6.96194 -4.22897 18.3328 -22.818 -3.41339 2.09799 0.125107 19.185 1.15226 -8.42884 -51.3626 14.4369 -11.2709 4.86697e-008 4.66301 -10.5164 -0.0754604 3.40997 0.00448839 -28.8874 -3.37504 -14.621 47.8652 -9.26936 -8.29086 -1.81398e-010 -6.22761 -1.70698 
-7.59288 82.2175 82.9465 87.6751 -43.2659 95.3915 2.58616 -0.123796 -2.35549 -9.51987e-015 7.95139e-016 -1.98018 11.6676 2.03755 9.76916 1.19328e-015 3.18055e-015 -20.5651 2.29178 -2.58716 4.72219 -3.1869e-015 0 -3.61722 -2.15391 -0.107085 2.84486 -8.44644e-015 4.77083e-015 -19.0707 -0.193717 -3.38218 7.03595 -4.09549 18.2172 -22.9446 -3.40722 2.09104 0.124468 19.3016 1.1936 -8.39637 -51.4594 14.3455 -11.165 3.18872e-008 4.69238 -10.6165 -0.1081 3.3862 0.00638506 -28.7119 -3.22219 -14.7533 47.8668 -9.39346 -8.39885 1.97028e-009 -6.27349 -1.86616 
-7.5639 82.2243 83.0695 87.7477 -43.4657 95.4446 2.69763 -0.00722762 -2.39428 6.39894e-015 9.93923e-016 -1.96438 11.7488 2.06248 9.81744 -6.895e-015 8.74653e-015 -20.701 2.40763 -2.4836 4.63634 3.18697e-015 0 -3.63614 -2.063 -0.105144 2.91639 -4.25803e-015 7.15625e-015 -19.0556 -0.141797 -3.36263 7.11314 -3.89299 18.0954 -23.0814 -3.43623 2.0821 0.124993 19.4395 1.21577 -8.35284 -51.5445 14.2244 -11.0421 -1.57643e-008 4.70298 -10.566 -0.156039 3.38351 0.00920929 -28.3681 -3.13398 -14.8523 47.5826 -9.60317 -8.66651 -8.74525e-009 -6.12565 -1.88377 
-7.53403 82.2286 83.2001 87.8362 -43.6669 95.5291 2.8895 0.11846 -2.45659 2.03451e-017 5.96354e-016 -1.95393 11.7667 2.07736 9.87161 -4.38708e-015 6.36111e-015 -20.8141 2.51372 -2.36533 4.51482 -6.17186e-015 3.18055e-015 -3.63531 -1.96613 -0.10242 2.9808 -9.88503e-015 1.03368e-014 -19.0911 -0.13322 -3.31774 7.17514 -3.41362 17.917 -23.2576 -3.44982 2.08246 0.125511 19.692 1.21228 -8.31329 -51.7952 14.0166 -10.7927 -1.12773e-009 4.74216 -10.5749 -0.216837 3.38169 0.0127907 -27.8661 -3.07865 -14.9608 47.2285 -9.78012 -8.93055 1.58713e-010 -6.04119 -1.8901 
-7.4979 82.2361 83.3192 87.8796 -43.8117 95.5857 3.0211 0.214312 -2.51065 -1.59325e-014 -5.96354e-016 -1.9597 11.7699 2.09749 9.96265 -5.84902e-015 -6.36111e-015 -21.0025 2.4416 -2.28293 4.43468 -3.13575e-015 7.95139e-016 -3.70234 -1.74172 -0.0933989 3.06857 -8.72177e-015 3.97569e-015 -19.0444 -0.154582 -3.28988 7.19166 -2.85388 17.7099 -23.3552 -3.47075 2.04041 0.123725 19.8484 1.28265 -8.27072 -51.9734 13.7718 -10.5458 5.20016e-008 4.71937 -10.4787 -0.260663 3.37278 0.0153354 -27.5535 -2.99714 -14.9803 47.0032 -9.9846 -9.18326 9.25503e-009 -5.94096 -1.97589 
-7.45659 82.2417 83.4775 87.9639 -43.9706 95.6887 3.18859 0.35708 -2.61742 1.59186e-014 1.98785e-016 -1.93829 11.7744 2.11576 10.0437 -1.48981e-014 5.56597e-015 -21.1574 2.54241 -2.14582 4.30432 5.17501e-017 7.95139e-016 -3.72373 -1.67915 -0.0911686 3.10691 -1.81578e-014 -3.97569e-015 -18.83 -0.172429 -3.24559 7.20897 -1.7903 17.3815 -23.3997 -3.4695 2.00115 0.121301 20.2253 1.31778 -8.27619 -52.3833 13.4396 -10.1538 -6.00684e-008 4.82854 -10.5066 -0.304774 3.34911 0.0178049 -27.1206 -2.90018 -14.9644 46.6145 -10.1681 -9.47301 -4.14295e-009 -5.87466 -1.98393 
-7.42047 82.2442 83.6027 87.9917 -44.042 95.7337 3.26503 0.450386 -2.71165 -3.17573e-015 1.98785e-016 -1.88745 11.7664 2.12605 10.0985 -1.24619e-015 5.56597e-015 -21.2714 2.60324 -2.05183 4.23487 1.2802e-014 7.95139e-016 -3.76188 -1.66696 -0.0913496 3.13579 -8.45794e-015 4.77083e-015 -18.7199 -0.181649 -3.24356 7.24173 -0.761603 17.1644 -23.3797 -3.42665 1.9371 0.115967 20.4917 1.36604 -8.301 -52.6638 13.2817 -9.93981 1.91347e-008 4.8869 -10.463 -0.341586 3.35128 0.0199685 -26.8226 -2.86297 -14.9313 46.4838 -10.2781 -9.61547 -8.90007e-009 -5.82528 -2.0115 
